<svg width="121" height="24" viewBox="0 0 121 24" fill="none" xmlns="http://www.w3.org/2000/svg">
<g clip-path="url(#clip0_30271_2971)">
<path d="M28.5836 6.3854V8.37845H32.5196V19.1561H34.9105V8.37845H39.3619V19.1561H41.6422V14.0624C41.6422 12.4383 42.0835 11.3308 43.6284 11.3308C44.8239 11.3308 45.3387 12.0694 45.3387 13.4349V19.1561H47.6008V13.0842C47.6008 10.4264 46.1112 9.44876 44.4374 9.44876C42.8742 9.44876 42.0835 10.1867 41.6416 10.8881V6.38477H28.583L28.5836 6.3854Z" fill="white"/>
<path d="M53.0656 9.44985C50.0863 9.44985 48.5967 11.6088 48.5967 14.5435C48.5967 17.0165 49.9028 19.3785 52.9556 19.3785C55.8067 19.3785 56.8362 17.5696 57.1857 16.3889H54.8865C54.6288 16.9982 54.2429 17.5513 53.0285 17.5513C51.6124 17.5513 50.8953 16.3152 50.8953 14.8935H57.2775C57.3146 14.6166 57.3146 14.3953 57.3146 14.0812C57.3146 11.8295 56.2479 9.44922 53.0662 9.44922L53.0656 9.44985ZM50.9512 13.436C51.08 12.0887 51.6501 11.1288 53.048 11.1288C54.4459 11.1288 54.9978 12.1625 55.016 13.436H50.9512Z" fill="white"/>
<path d="M62.8311 6.2018C59.8701 6.2018 58.3069 7.7338 58.3069 9.83723C58.3069 11.5906 59.2264 12.7713 62.5187 13.5654C64.8362 14.1002 65.4433 14.654 65.4433 15.7615C65.4433 16.7952 64.7626 17.496 63.1259 17.496C61.4892 17.496 60.5696 16.8501 60.2566 15.4846H57.8474C58.1416 17.6808 59.7236 19.3231 62.9424 19.3231C66.1611 19.3231 67.8896 17.7173 67.8896 15.4846C67.8896 13.7495 67.1354 12.3468 63.4754 11.4796C61.3603 10.9813 60.7532 10.5752 60.7532 9.57864C60.7532 8.58211 61.4886 8.02835 62.7576 8.02835C64.4678 8.02835 65.0499 8.92143 65.1668 9.67072H67.576C67.3918 7.88013 65.8701 6.20117 62.8311 6.20117V6.2018Z" fill="white"/>
<path d="M71.621 7.03125H69.3407V9.67078H67.5745V11.4242H69.3407V16.7392C69.3407 18.3633 69.9661 19.286 71.6763 19.286C72.1917 19.286 72.8536 19.2677 73.3319 19.1012V17.4954C73.1113 17.5326 72.8354 17.5326 72.6512 17.5326C71.8416 17.5326 71.621 17.2002 71.621 16.4068V11.4242H73.5525V9.67078H71.621V7.03125Z" fill="white"/>
<path d="M81.8081 12.6603C81.8081 10.4459 80.4655 9.46768 78.001 9.44939C75.187 9.4311 74.2122 10.8521 74.0833 12.4024H76.2719C76.4008 11.701 76.6578 11.129 77.9086 11.129C79.3247 11.129 79.5642 11.9041 79.5642 12.6421V13.2879H78.1299C75.3524 13.2879 73.6421 14.2844 73.6421 16.4251C73.6421 17.8833 74.5987 19.3781 76.8609 19.3781C78.59 19.3781 79.2701 18.695 79.6013 18.1229C79.6195 18.4736 79.6748 18.9536 79.7484 19.1567H81.937C81.8817 18.917 81.8081 17.7174 81.8081 16.8312V12.6603ZM79.5831 15.0041C79.5831 16.4068 79.3442 17.6985 77.468 17.6985C76.4567 17.6985 75.9413 17.0709 75.9413 16.2958C75.9413 15.2255 76.6767 14.7272 78.3505 14.7272H79.5824V15.0041H79.5831Z" fill="white"/>
<path d="M89.5031 10.7409C89.3378 10.2427 88.6389 9.44922 86.9469 9.44922C84.6112 9.44922 82.8274 11.424 82.8274 14.4318C82.8274 17.0707 84.317 19.0644 86.7451 19.0644C88.1983 19.0644 89.0072 18.529 89.5038 17.6245V18.1783C89.5038 20.153 89.1172 21.2971 87.2599 21.2971C86.1932 21.2971 85.5861 20.8172 85.3654 20.042H83.048C83.1586 21.1861 83.9123 23.0133 87.1681 23.0133C90.4239 23.0133 91.7477 21.1489 91.7477 18.1045V12.4016C91.7477 11.4789 91.7477 10.4085 91.7659 9.66997H89.5955C89.5773 9.83585 89.522 10.4262 89.5038 10.7403L89.5031 10.7409ZM87.3699 17.2C86.0826 17.2 85.1813 16.0925 85.1813 14.3398C85.1813 12.3833 86.0826 11.313 87.4252 11.313C89.209 11.313 89.5767 12.4571 89.5767 14.2477C89.5767 16.0383 89.0984 17.2007 87.3699 17.2007V17.2Z" fill="white"/>
<path d="M97.2287 9.44985C94.2494 9.44985 92.7598 11.6088 92.7598 14.5435C92.7598 17.0165 94.0659 19.3785 97.1187 19.3785C99.9698 19.3785 100.999 17.5696 101.349 16.3889H99.0496C98.7919 16.9982 98.406 17.5513 97.1922 17.5513C95.7761 17.5513 95.059 16.3152 95.059 14.8935H101.441C101.478 14.6166 101.478 14.3953 101.478 14.0812C101.478 11.8295 100.411 9.44922 97.2293 9.44922L97.2287 9.44985ZM95.1137 13.436C95.2425 12.0887 95.8126 11.1288 97.2105 11.1288C98.6083 11.1288 99.1602 12.1625 99.1784 13.436H95.1137Z" fill="white"/>
<path d="M104.783 16.3887H102.337V19.1569H104.783V16.3887Z" fill="white"/>
<path d="M109.898 6.38672L105.502 19.158H107.856L108.978 15.9098H113.778L114.936 19.158H117.456L112.876 6.38672H109.897H109.898ZM109.511 13.9168C110.321 11.4255 110.983 9.37693 111.296 8.17731H111.314C111.626 9.26592 112.233 11.001 113.226 13.9168H109.511Z" fill="white"/>
<path d="M120.672 6.38672H118.281V19.158H120.672V6.38672Z" fill="white"/>
<path d="M17.7475 13.3745C17.4389 16.7879 14.5803 19.4634 11.0975 19.4634C7.40863 19.4634 4.41865 16.4631 4.41865 12.7615C4.41865 9.26734 7.0843 6.39886 10.486 6.08855C10.6419 4.36734 11.4445 2.83344 12.6507 1.73601C12.1428 1.66473 11.6249 1.625 11.0975 1.625C4.96863 1.625 0 6.61078 0 12.7609C0 18.9109 4.96863 23.8967 11.0975 23.8967C17.2265 23.8967 22.1951 18.9109 22.1951 12.7609C22.1951 12.2317 22.1555 11.712 22.0845 11.2024C20.9908 12.4121 19.4622 13.2181 17.7469 13.3745H17.7475Z" fill="white"/>
<path d="M11.0947 6.05859C10.8885 6.05859 10.6849 6.06932 10.4837 6.08761C10.4655 6.28943 10.4548 6.49379 10.4548 6.70066C10.4548 10.4017 13.4448 13.4026 17.1337 13.4026C17.3399 13.4026 17.5435 13.3919 17.7447 13.3736C17.7629 13.1718 17.7736 12.9674 17.7736 12.7605C17.7736 9.05952 14.7836 6.05859 11.0947 6.05859Z" fill="white"/>
<path d="M22.0825 11.2027C23.1573 10.0132 23.8128 8.43451 23.8128 6.70195C23.8128 3.00093 20.8229 0 17.134 0C15.4074 0 13.8341 0.657202 12.6487 1.73635C17.5337 2.4232 21.398 6.30018 22.0825 11.2027Z" fill="white"/>
</g>
<defs>
<clipPath id="clip0_30271_2971">
<rect width="120.68" height="23.8971" fill="white"/>
</clipPath>
</defs>
</svg>
